<?xml version="1.0" encoding="UTF-8"?>
<svg id="Layer_1" xmlns="http://www.w3.org/2000/svg" version="1.1" viewBox="0 0 545 122">
  <!-- Generator: Adobe Illustrator 29.1.0, SVG Export Plug-In . SVG Version: 2.1.0 Build 142)  -->
  <defs>
    <style>
      .st0 {
        fill: #1a5f7a;
      }

      .st0, .st1 {
        stroke: #fff;
        stroke-miterlimit: 10;
        stroke-width: .2px;
      }

      .st2 {
        fill: #fff;
      }

      .st1 {
        fill: #4fbdba;
      }
    </style>
  </defs>
  <g>
    <path class="st1" d="M71.3,57.3c0,30.2,24.5,54.6,54.6,54.6s21.2-3.2,29.7-8.8l32.4,7.7-12.9-29.8c3.5-7.2,5.4-15.3,5.4-23.8,0-30.2-24.5-54.6-54.6-54.6s-54.6,24.5-54.6,54.6h0Z"/>
    <path class="st2" d="M123.7,66.3h-21.8c-5.1,0-9.1-4-9.1-9.1h0c0-5.1,4-9.1,9.1-9.1h21.8c5.1,0,9.1,4,9.1,9.1h0c0,5.1-4,9.1-9.1,9.1Z"/>
    <circle class="st2" cx="147.9" cy="57.3" r="9.1"/>
    <path class="st0" d="M104.2,78.4h0c0,1.4-.2,2.6-.7,3.7-.3.6-.6,1.2-.9,1.7-4.4,7.9-10.8,14.7-18.5,19.6-8.5,5.4-18.5,8.5-29.3,8.5s-16.6-2-23.8-5.4L1.1,119.4l7.7-32.4C3.3,78.5,0,68.3,0,57.3,0,27.1,24.6,2.6,54.7,2.6s20.9,3.1,29.3,8.5c-4.8,4.3-8.9,9.4-12.1,15-5.1-2.8-11-4.4-17.2-4.4-19.7,0-35.6,15.9-35.6,35.6s15.9,35.6,35.6,35.6,12.1-1.6,17.2-4.4c5.7-3.2,10.6-7.9,13.8-13.6.3-.5.6-1.1.9-1.7,1.7-2.6,4.6-4.2,7.9-4.2h0c5.3,0,9.5,4.3,9.5,9.5h0Z"/>
  </g>
  <g>
    <path d="M205.9,105c0-5.3,4.4-8,14.4-9.1,0-2.6-1.1-4.8-4.5-4.8s-4.7,1.1-6.9,2.4l-2.1-3.8c2.7-1.7,6.2-3.2,10.1-3.2,6.1,0,9.2,3.8,9.2,10.6v14.5h-4.7l-.4-2.7h-.2c-2.2,1.9-4.7,3.3-7.6,3.3-4.3,0-7.3-2.9-7.3-7.2ZM220.3,105v-5.5c-6.7.8-8.9,2.6-8.9,5.1s1.5,3.1,3.5,3.1,3.5-1,5.3-2.7Z"/>
    <path d="M230.5,108.8l2.7-3.7c2.2,1.7,4.3,2.7,6.8,2.7s3.9-1.3,3.9-2.9-2.7-3-5.3-4c-3.2-1.2-6.9-3.1-6.9-7.2s3.4-7.3,8.9-7.3,6.2,1.4,8.2,2.9l-2.6,3.5c-1.7-1.3-3.5-2.1-5.4-2.1s-3.6,1.2-3.6,2.7,2.5,2.7,5.1,3.7c3.3,1.2,7,2.8,7,7.4s-3.3,7.6-9.5,7.6-6.9-1.4-9.3-3.4Z"/>
    <path d="M254.5,76.3h5.6v22.1h.2l9.1-11.3h6.3l-8.4,10,9.3,14.6h-6.3l-6.3-10.7-3.8,4.4v6.2h-5.6v-35.3Z"/>
    <path d="M294.9,40.1h18.9v26.6h.4l18-26.6h20.7l-21.3,29,25.5,42.5h-20.7l-15.8-27.5-6.8,9.7v17.8h-18.9V40.1Z"/>
    <path d="M362.4,92.2v-57.2h18.9v57.9c0,3.7,1.8,4.8,3.1,4.8s1.1,0,2-.2l2.2,13.9c-2,.9-5.1,1.5-9.2,1.5-12.8,0-16.9-8.4-16.9-20.7Z"/>
    <path d="M393,96c0-11.4,8.8-17.8,29.9-20-.4-4-2.9-5.7-7.7-5.7s-8.1,1.5-13.9,4.6l-6.6-12.3c7.7-4.6,15.6-7.3,24.2-7.3,14.3,0,22.9,7.7,22.9,25.7v30.6h-15.4l-1.3-5.3h-.4c-4.4,4-9.2,6.6-15.2,6.6-10.3,0-16.5-7.9-16.5-16.9ZM422.9,94.6v-7.5c-9,1.3-11.9,4.2-11.9,7.3s1.8,4,5.1,4,4.8-1.5,6.8-3.7Z"/>
    <path d="M454.2,56.6h15.4l1.3,9.5h.4c4.1-7.5,10.2-10.8,15.6-10.8s5.3.4,6.8,1.1l-3.1,16.3c-2-.4-3.7-.9-6.2-.9-4,0-8.8,2.4-11.4,9.2v30.6h-18.9v-55Z"/>
    <path d="M494.6,96c0-11.4,8.8-17.8,29.9-20-.4-4-2.9-5.7-7.7-5.7s-8.1,1.5-13.9,4.6l-6.6-12.3c7.7-4.6,15.6-7.3,24.2-7.3,14.3,0,22.9,7.7,22.9,25.7v30.6h-15.4l-1.3-5.3h-.4c-4.4,4-9.2,6.6-15.2,6.6-10.3,0-16.5-7.9-16.5-16.9ZM524.6,94.6v-7.5c-9,1.3-11.9,4.2-11.9,7.3s1.8,4,5.1,4,4.8-1.5,6.8-3.7Z"/>
  </g>
</svg>