<?xml version="1.0" encoding="UTF-8"?>
<svg id="Layer_1" xmlns="http://www.w3.org/2000/svg" version="1.1" viewBox="0 0 192 192">
  <!-- Generator: Adobe Illustrator 29.1.0, SVG Export Plug-In . SVG Version: 2.1.0 Build 142)  -->
  <defs>
    <style>
      .st0 {
        fill: #1a5f7a;
      }

      .st0, .st1 {
        stroke: #fff;
        stroke-miterlimit: 10;
        stroke-width: .2px;
      }

      .st2 {
        fill: #fff;
      }

      .st1 {
        fill: #4fbdba;
      }
    </style>
  </defs>
  <path class="st1" d="M73.6,92.3c0,29.7,24.1,53.8,53.8,53.8s20.8-3.2,29.3-8.6l31.9,7.6-12.7-29.3c3.5-7.1,5.4-15,5.4-23.5,0-29.7-24.1-53.8-53.8-53.8s-53.8,24.1-53.8,53.8h0Z"/>
  <path class="st2" d="M125.2,101.2h-21.5c-5,0-9-3.9-9-9h0c0-5,3.9-9,9-9h21.5c5,0,9,3.9,9,9h0c0,5-3.9,9-9,9Z"/>
  <circle class="st2" cx="149" cy="92.3" r="9"/>
  <path class="st0" d="M106,113.1h0c0,1.4-.2,2.6-.7,3.7-.3.6-.6,1.1-.9,1.7-4.4,7.8-10.6,14.5-18.2,19.3-8.3,5.3-18.3,8.4-28.9,8.4s-16.4-1.9-23.5-5.4l-29.3,12.7,7.6-31.9c-5.5-8.4-8.7-18.4-8.7-29.3,0-29.8,24.2-53.8,53.9-53.8s20.5,3.1,28.9,8.4c-4.7,4.3-8.7,9.2-11.9,14.7-5-2.8-10.8-4.4-17-4.4-19.3,0-35,15.7-35,35s15.7,35,35,35,11.9-1.6,17-4.4c5.6-3.1,10.4-7.8,13.6-13.4.3-.5.6-1.1.9-1.7,1.7-2.5,4.6-4.2,7.8-4.2h0c5.2,0,9.4,4.2,9.4,9.4h0Z"/>
</svg>